<svg viewBox="0 0 800 800" xmlns="http://www.w3.org/2000/svg"><path d="M639.5366448853604,278.0011030980334 L639.5976231676475,262.8072737464678 M639.5976231676475,262.8072737464678 L661.738327898408,276.7457519514966 M661.738327898408,276.7457519514966 L681.464749482755,291.8550799597507 M681.464749482755,291.8550799597507 L698.5910588100769,307.99750684789916 M698.5910588100769,307.99750684789916 L712.9545693834218,325.0254350803208 M712.9545693834218,325.0254350803208 L724.417511926802,342.7825945048961 M724.417511926802,342.7825945048961 L732.8682698085274,361.1054722700349 M732.8682698085274,361.1054722700349 L738.2227123111545,379.82472310388874 M738.2227123111545,379.82472310388874 L740.4251092522034,398.7666975100227 M740.4251092522034,398.7666975100227 L739.4489006615024,417.7550158542356 M739.4489006615024,417.7550158542356 L735.2971471344968,436.6121589138081 M735.2971471344968,436.6121589138081 L728.002733364204,455.1611993078212 M728.002733364204,455.1611993078212 L717.6282892136032,473.2274336932486 M717.6282892136032,473.2274336932486 L704.265808422861,490.6400848635728 M704.265808422861,490.6400848635728 L688.0359260386822,507.2339733101747 M688.0359260386822,507.2339733101747 L669.0870509751892,522.8511497351051 M669.0870509751892,522.8511497351051 L647.5940140647917,537.3424981994411 M647.5940140647917,537.3424981994411 L623.7565372057313,550.5692249311608 M623.7565372057313,550.5692249311608 L597.7974242021323,562.4043077982178 M597.7974242021323,562.4043077982178 L569.9604840582001,572.7338156841731 M569.9604840582001,572.7338156841731 L540.5081510846476,581.4580862220845 M540.5081510846476,581.4580862220845 L509.7189830807818,588.4927792948081 M509.7189830807818,588.4927792948081 L477.884912822997,593.7697986533544 M477.884912822997,593.7697986533544 L445.3083745792147,597.2379834522377 M445.3083745792147,597.2379834522377 L412.29928700703755,598.8637088219563 M412.29928700703755,598.8637088219563 L379.1718824018659,598.6311856718723 M379.1718824018659,598.6311856718723 L346.24159186210005,596.5426618760613 M346.24159186210005,596.5426618760613 L313.8218818802406,592.6184117890837 M313.8218818802406,592.6184117890837 L282.2210431908717,586.8965078346927 M282.2210431908717,586.8965078346927 L251.73918557983438,579.4323884873336 M251.73918557983438,579.4323884873336 L222.66515177553916,570.2982957085521 M222.66515177553916,570.2982957085521 L195.27374277635636,559.5824755036572 M195.27374277635636,559.5824755036572 L169.82296491260414,547.3882678919184 M169.82296491260414,547.3882678919184 L146.55157756918837,533.83299460973 M146.55157756918837,533.83299460973 L125.67680201667974,519.0467465549153 M125.67680201667974,519.0467465549153 L107.39229788783945,503.1710360397045 M107.39229788783945,503.1710360397045 L91.8664287170443,486.3573333079014 M91.8664287170443,486.3573333079014 L79.2407419456415,468.7655541236825 M79.2407419456415,468.7655541236825 L69.62882405668074,450.5624218412586 M69.62882405668074,450.5624218412586 L63.1153552425252,431.9198663430237 M63.1153552425252,431.9198663430237 L59.755565447003846,413.01329306107357 M59.755565447003846,413.01329306107357 L59.574890747796644,394.01994564950223 M59.574890747796644,394.01994564950223 L62.56894211909383,375.1171935938477 M62.56894211909383,375.1171935938477 L68.70379579420603,356.4808850215248 M68.70379579420603,356.4808850215248 L77.91658315832791,338.2837579257453 M77.91658315832791,338.2837579257453 L90.11617918993755,320.69384237889994 M90.11617918993755,320.69384237889994 L105.18432765168177,303.87296462095725 M105.18432765168177,303.87296462095725 L122.97684207881463,287.97533821635204 M122.97684207881463,287.97533821635204 L143.32512079492517,273.14622212838924 M143.32512079492517,273.14622212838924 L166.03781119193536,259.5207063393216 M166.03781119193536,259.5207063393216 L190.90261729910975,247.22254573353626 M190.90261729910975,247.22254573353626 L217.68828842739813,236.36313799620928 M217.68828842739813,236.36313799620928 L246.14678081234237,227.0406189348733 M246.14678081234237,227.0406189348733 L276.0154500152893,219.33907702792877 M276.0154500152893,219.33907702792877 L307.0194167920378,213.3278270294235 M307.0194167920378,213.3278270294235 L338.873975178752,209.0609152160581 M338.873975178752,209.0609152160581 L371.2870753919119,206.57666315792858 M371.2870753919119,206.57666315792858 L403.9618811576817,205.8973634047882 M403.9618811576817,205.8973634047882 L436.59924263991223,207.02910885510903 M436.59924263991223,207.02910885510903 L468.9003884678751,209.96174804151684 M468.9003884678751,209.96174804151684 L500.56943432774426,214.66895345147282 M500.56943432774426,214.66895345147282 L531.3159304645058,221.10845031861032 M531.3159304645058,221.10845031861032 L560.8574034766054,229.2223142169749 M560.8574034766054,229.2223142169749 L588.921771808589,238.93750242202972 M588.921771808589,238.93750242202972 L615.2498727815191,250.16633127209138 M615.2498727815191,250.16633127209138 L639.5976231676475,262.8072737464678 M639.5366448853604,278.0011030980334 L615.1951111624021,265.35689545765524 M615.1951111624021,265.35689545765524 L588.8737225888976,254.12516389056006 M588.8737225888976,254.12516389056006 L560.8165006204501,244.40746250637977 M560.8165006204501,244.40746250637977 L531.282542666517,236.29149842640535 M531.282542666517,236.29149842640535 L500.5438620322836,229.85033396396696 M500.5438620322836,229.85033396396696 L468.88286148641674,225.1419091086663 M468.88286148641674,225.1419091086663 L436.5899183289453,222.2085100024429 M436.5899183289453,222.2085100024429 L403.96084318157966,221.07647124921135 M403.96084318157966,221.07647124921135 L371.29433306700224,221.75594705217014 M371.29433306700224,221.75594705217014 L338.8894633858561,224.24084287071207 M338.8894633858561,224.24084287071207 L307.0429965037419,228.50886014940147 M307.0429965037419,228.50886014940147 L276.04690938452313,234.52166700338745 M276.04690938452313,234.52166700338745 L246.1858368483626,242.22520262832285 M246.1858368483626,242.22520262832285 L217.73458924729425,251.5501336716045 M217.73458924729425,251.5501336716045 L190.9557449447645,262.412349142951 M190.9557449447645,262.412349142951 L166.09728501269345,274.71368703173016 M166.09728501269345,274.71368703173016 L143.3904013640738,288.3427199991557 M143.3904013640738,288.3427199991557 L123.04733564932081,303.1756603302402 M123.04733564932081,303.1756603302402 L105.25939112104305,319.07738233953415 M105.25939112104305,319.07738233953415 L90.19512554208302,335.9025888285156 M90.19512554208302,335.9025888285156 L77.99868735947973,353.4970258160728 M77.99868735947973,353.4970258160728 L68.78830111740763,371.698824843637 M68.78830111740763,371.698824843637 L62.65506682858171,390.3399122098406 M62.65506682858171,390.3399122098406 L59.66183513341326,409.2475052896786 M59.66183513341326,409.2475052896786 L59.84251910462194,428.2457107474696 M59.84251910462194,428.2457107474696 L63.20150457996107,447.157113728922 M63.20150457996107,447.157113728922 L69.71335995081114,465.80442547319836 M69.71335995081114,465.80442547319836 L79.32286746795478,484.01219613399934 M79.32286746795478,484.01219613399934 L91.94536684393836,501.60845251021897 M91.94536684393836,501.60845251021897 L107.46729913840818,518.4264294433171 M107.46729913840818,518.4264294433171 L125.74715190607441,534.3061712578299 M125.74715190607441,534.3061712578299 L146.6166038155486,549.0961700736931 M146.6166038155486,549.0961700736931 L169.88204428826674,562.6548785627773 M169.88204428826674,562.6548785627773 L195.3263075340805,574.8521737614132 M195.3263075340805,574.8521737614132 L222.7106955603785,585.5707051161586 M222.7106955603785,585.5707051161586 L251.77726874252326,594.707107304137 M251.77726874252326,594.707107304137 L282.251297446409,602.1731127709793 M282.251297446409,602.1731127709793 L313.84401422032323,607.8964619540786 M313.84401422032323,607.8964619540786 L346.2553877034555,611.8217028964364 M346.2553877034555,611.8217028964364 L379.1772078799849,613.9107539272363 M379.1772078799849,613.9107539272363 L412.29609042831873,614.1433357717261 M412.29609042831873,614.1433357717261 L445.29668697350616,612.5172000105857 M445.29668697350616,612.5172000105857 L477.8648476068569,609.0481395657298 M477.8648476068569,609.0481395657298 L509.6907348451693,603.7697874711484 M509.6907348451693,603.7697874711484 L540.4719934968534,596.7333170100605 M540.4719934968534,596.7333170100605 L569.916766924772,588.0068410140992 M569.916766924772,588.0068410140992 L597.7465697394252,577.6747201832543 M597.7465697394252,577.6747201832543 L623.6990355622345,565.8366412700216 M623.6990355622345,565.8366412700216 L647.5304181722781,552.6065633521364 M647.5304181722781,552.6065633521364 L669.0179707747716,538.1115398425585 M669.0179707747716,538.1115398425585 L687.9620221750167,522.4903988224166 M687.9620221750167,522.4903988224166 L704.1877854904926,505.89229324235004 M704.1877854904926,505.89229324235004 L717.5468886413112,488.47521177624014 M717.5468886413112,488.47521177624014 L727.9187259966995,470.4043753010416 M727.9187259966995,470.4043753010416 L735.2113256471991,451.8506039989661 M735.2113256471991,451.8506039989661 L739.3620718549214,432.9886453942181 M739.3620718549214,432.9886453942181 L740.3380863203136,413.9954718369414 M740.3380863203136,413.9954718369414 L738.1363071651394,395.04864789922385 M738.1363071651394,395.04864789922385 L732.7832855298489,376.32459850290945 M732.7832855298489,376.32459850290945 L724.3347354109039,357.99701795595695 M724.3347354109039,357.99701795595695 L712.8747642515227,340.23529544730656 M712.8747642515227,340.23529544730656 L698.5149586193677,323.2029864371307 M698.5149586193677,323.2029864371307 L681.3930513326693,307.0564019872122 M681.3930513326693,307.0564019872122 L661.6716863974423,291.94317844291106 M661.6716863974423,291.94317844291106 L639.5366448853604,278.0011030980334 M284.39113178890284,237.42170617453627 L286.48361523567115,238.958853212898 M286.48361523567115,238.958853212898 L287.87336176906115,240.73972680367064 M287.87336176906115,240.73972680367064 L288.47950903720556,242.66090589319458 M288.47950903720556,242.66090589319458 L288.26667488601413,244.61076289351456 M288.26667488601413,244.61076289351456 L287.24711829322155,246.4759919803043 M287.24711829322155,246.4759919803043 L285.4798895925796,248.1481068917659 M285.4798895925796,248.1481068917659 L283.0676664568979,249.52987629375843 M283.0676664568979,249.52987629375843 L280.1506440179106,250.54090307357592 M280.1506440179106,250.54090307357592 L276.89837720707396,251.12232322361623 M276.89837720707396,251.12232322361623 L273.5000660904564,251.24033696866965 M273.5000660904564,251.24033696866965 L270.153324039811,250.88804798210725 M270.153324039811,250.88804798210725 L267.0528128913563,250.0859663756101 M267.0528128913563,250.0859663756101 L264.37881205923736,248.88076858649566 M264.37881205923736,248.88076858649566 L262.2867753750816,247.34259130278178 M262.2867753750816,247.34259130278178 L260.89825804583984,245.56092348807744 M260.89825804583984,245.56092348807744 L260.2938408293894,243.63936813719135 M260.2938408293894,243.63936813719135 L260.5085095370863,241.68963903449392 M260.5085095370863,241.68963903449392 L261.52958494407324,239.82501271011174 M261.52958494407324,239.82501271011174 L263.29766873456913,238.15383732975138 M263.29766873456913,238.15383732975138 L265.7098873743807,236.77312900344907 M265.7098873743807,236.77312900344907 L268.62604676167234,235.7630417662267 M268.62604676167234,235.7630417662267 L271.8767896503483,235.18222436174457 M271.8767896503483,235.18222436174457 L275.27326512644447,235.06433852438636 M275.27326512644447,235.06433852438636 L278.6182803138387,235.4162512516216 M278.6182803138387,235.4162512516216 L281.71756898865937,236.21753863292759 M281.71756898865937,236.21753863292759 L284.39113178890284,237.42170617453627 M129.84825553270315,457.5015525011027 L89.38973361064336,480.7707651921388 M261.41780574879516,580.9085246114822 L89.38973361064336,480.7707651921388 M261.41780574879516,580.9085246114822 L301.8773956490796,557.483006749157 M129.84825553270315,457.5015525011027 L301.8773956490796,557.483006749157 M473.0551830884821,565.2829757163556 L475.18073962491917,566.8543526485493 M475.18073962491917,566.8543526485493 L476.59734468821165,568.6748889978044 M476.59734468821165,568.6748889978044 L477.2225949547047,570.6388613223307 M477.2225949547047,570.6388613223307 L477.01997896141637,572.6321403657568 M477.01997896141637,572.6321403657568 L476.00111561603836,574.538909328813 M476.00111561603836,574.538909328813 L474.22511333730176,576.2482809005461 M474.22511333730176,576.2482809005461 L471.79507173694446,577.6608314263759 M471.79507173694446,577.6608314263759 L468.85222094362285,578.694371789355 M468.85222094362285,578.694371789355 L465.5676928753068,579.2887576632384 M465.5676928753068,579.2887576632384 L462.132495687469,579.4094005646209 M462.132495687469,579.4094005646209 L458.7464002536793,579.0492567907513 M458.7464002536793,579.0492567907513 L455.6063860504857,578.2293033295292 M455.6063860504857,578.2293033295292 L452.89500914115666,576.9972572384821 M452.89500914115666,576.9972572384821 L450.7699136234348,575.4248218367758 M450.7699136234348,575.4248218367758 L449.35454898386257,573.60347096566 M449.35454898386257,573.60347096566 L448.7310758671778,571.639116122482 M448.7310758671778,571.639116122482 L448.935557073655,569.6459501225412 M448.935557073655,569.6459501225412 L449.95596598533746,567.7398105511593 M449.95596598533746,567.7398105511593 L451.732870526872,566.0314100779409 M451.732870526872,566.0314100779409 L454.16291443853595,564.6199562738744 M454.16291443853595,564.6199562738744 L457.1048670621283,563.5873870069927 M457.1048670621283,563.5873870069927 L460.38785218995616,562.9936177602144 M460.38785218995616,562.9936177602144 L463.82118472164416,562.8731262043336 M463.82118472164416,562.8731262043336 L467.2055013663697,563.2328746917779 M467.2055013663697,563.2328746917779 L470.34427168589957,564.0520008634073 M470.34427168589957,564.0520008634073 L473.0551830884821,565.2829757163556 M668.8801766343606,344.9937001921144 L708.7052001581208,321.93558709154604 M536.6770802714238,223.51904394762317 L708.7052001581208,321.93558709154604 M536.6770802714238,223.51904394762317 L496.8510123643792,246.42450862480348 M668.8801766343606,344.9937001921144 L496.8510123643792,246.42450862480348 M705.8389029892307,353.5078890081523 L707.9615439897213,355.0571190468091 M707.9615439897213,355.0571190468091 L709.382203453727,356.8519755515947 M709.382203453727,356.8519755515947 L710.0181803222083,358.78825032471724 M710.0181803222083,358.78825032471724 L709.8323852841042,360.7534356472257 M709.8323852841042,360.7534356472257 L708.8354727086576,362.63331640864646 M708.8354727086576,362.63331640864646 L707.0852014316076,364.31858822356776 M707.0852014316076,364.31858822356776 L704.6832726102684,365.711211229823 M704.6832726102684,365.711211229823 L701.7692389821304,366.730181263776 M701.7692389821304,366.730181263776 L698.512534381359,367.3161776427306 M698.512534381359,367.3161776427306 L695.102569153976,367.43511268345225 M695.102569153976,367.43511268345225 L691.7376668244942,367.08005470214715 M691.7376668244942,367.08005470214715 L688.6135408177108,366.27166570188604 M688.6135408177108,366.27166570188604 L685.9118340651739,365.05699555556987 M685.9118340651739,365.05699555556987 L683.789628688714,363.5067356919211 M683.789628688714,363.5067356919211 L682.3702075462184,361.7110692917358 M682.3702075462184,361.7110692917358 L681.73596892671,359.7744138119757 M681.73596892671,359.7744138119757 L681.923603797467,357.8093516039994 M681.923603797467,357.8093516039994 L682.9220667423192,355.9300870138948 M682.9220667423192,355.9300870138948 L684.6732024557398,354.24577212677593 M684.6732024557398,354.24577212677593 L687.0751419656808,352.85422272322 M687.0751419656808,352.85422272322 L689.9883300861452,351.83619703406913 M689.9883300861452,351.83619703406913 L693.2434964610209,351.25080423551833 M693.2434964610209,351.25080423551833 L696.6516244323336,351.1320048966404 M696.6516244323336,351.1320048966404 L700.0147809323271,351.48668217500625 M700.0147809323271,351.48668217500625 L703.1376526165895,352.29427385814625 M703.1376526165895,352.29427385814625 L705.8389029892307,353.5078890081523 M284.4204816919161,252.60897563513583 L281.7475971585173,251.40449664939288 M281.7475971585173,251.40449664939288 L278.6490953042004,250.60300201049242 M278.6490953042004,250.60300201049242 L275.30492982079954,250.25099825552 M275.30492982079954,250.25099825552 L271.90931762196703,250.3689145861328 M271.90931762196703,250.3689145861328 L268.6594015034196,250.94988222581398 M268.6594015034196,250.94988222581398 L265.7439843813408,251.96023072009004 M265.7439843813408,251.96023072009004 L263.3323804132123,253.34129613551283 M263.3323804132123,253.34129613551283 L261.5647479774071,255.01290368396897 M261.5647479774071,255.01290368396897 L260.54393432837605,256.8780121465054 M260.54393432837605,256.8780121465054 L260.3293225220092,258.82824532861133 M260.3293225220092,258.82824532861133 L260.9335883847384,260.7502974110493 M260.9335883847384,260.7502974110493 L262.32175482791376,262.53242573904 M262.32175482791376,262.53242573904 L264.4132614298847,264.0710005564347 M264.4132614298847,264.0710005564347 L267.0865837736011,265.2765097940767 M267.0865837736011,265.2765097940767 L270.1863074809809,266.07879866155497 M270.1863074809809,266.07879866155497 L273.5321989502128,266.431178677459 M273.5321989502128,266.431178677459 L276.9296458563086,266.31313443860563 M276.9296458563086,266.31313443860563 L280.1810851217048,265.7315640507961 M280.1810851217048,265.7315640507961 L283.09736485574837,264.7202760099184 M283.09736485574837,264.7202760099184 L285.50897331631944,263.3381495142807 M285.50897331631944,263.3381495142807 L287.2757510959314,261.66560243071694 M287.2757510959314,261.66560243071694 L288.2950467021855,259.7998912032026 M288.2950467021855,259.7998912032026 L288.50782488447874,257.8495301229286 M288.50782488447874,257.8495301229286 L287.9018298499064,255.9278543034574 M287.9018298499064,255.9278543034574 L286.51243482828545,254.1465202027853 M286.51243482828545,254.1465202027853 L284.4204816919161,252.60897563513583 M473.0363780088863,580.5541164713034 L470.32616395747823,579.322830170511 M470.32616395747823,579.322830170511 L467.18820062921833,578.5034967380859 M467.18820062921833,578.5034967380859 L463.80475377009486,578.1436572210264 M463.80475377009486,578.1436572210264 L460.3723033478932,578.2641792659554 M460.3723033478932,578.2641792659554 L457.090161473142,578.8580987557975 M457.090161473142,578.8580987557975 L454.1489643017907,579.8909292821004 M454.1489643017907,579.8909292821004 L451.71954418213363,581.3027401808765 M451.71954418213363,581.3027401808765 L449.9430955184077,583.0115728298994 M449.9430955184077,583.0115728298994 L448.9229480341591,584.9181945401945 M448.9229480341591,584.9181945401945 L448.7185185440254,586.9118646247866 M448.7185185440254,586.9118646247866 L449.34183058246117,588.8767161993443 M449.34183058246117,588.8767161993443 L450.7568306276764,590.6985275808661 M450.7568306276764,590.6985275808661 L452.8813791718675,592.2713605113681 M452.8813791718675,592.2713605113681 L455.59205849301895,593.5037180474211 M455.59205849301895,593.5037180474211 L458.731265062362,594.3238787676208 M458.731265062362,594.3238787676208 L462.1164897989345,594.6841135710939 M462.1164897989345,594.6841135710939 L465.55080391616775,594.5634401763726 M465.55080391616775,594.5634401763726 L468.8344879359041,593.9689040636449 M468.8344879359041,593.9689040636449 L471.7765828215376,592.9351024453051 M471.7765828215376,592.9351024453051 L474.20600063166967,591.5221948293515 M474.20600063166967,591.5221948293515 L475.98154749120005,589.8123910858744 M475.98154749120005,589.8123910858744 L477.0001502066712,587.9051399848955 M477.0001502066712,587.9051399848955 L477.20271544516356,585.9113568622143 M477.20271544516356,585.9113568622143 L476.57762716727103,583.9468878030679 M476.57762716727103,583.9468878030679 L475.161387338249,582.1258909383596 M475.161387338249,582.1258909383596 L473.0363780088863,580.5541164713034 M705.760836876834,368.72506593163206 L703.0602788778192,367.51113931298545 M703.0602788778192,367.51113931298545 L699.9382060317444,366.70334035121067 M699.9382060317444,366.70334035121067 L696.5759084753022,366.34857203688966 M696.5759084753022,366.34857203688966 L693.1686497084004,366.4674018685487 M693.1686497084004,366.4674018685487 L689.9143123584477,367.05294491906386 M689.9143123584477,367.05294491906386 L687.0018649779165,368.07123188945366 M687.0018649779165,368.07123188945366 L684.6005349009106,369.4631384121371 M684.6005349009106,369.4631384121371 L682.8498419043015,371.1478855075318 M682.8498419043015,371.1478855075318 L681.8516291864701,373.02763227402346 M681.8516291864701,373.02763227402346 L681.6640374442231,374.9931986072394 M681.6640374442231,374.9931986072394 L682.2981095109824,376.93035085978454 M682.2981095109824,376.93035085978454 L683.717164018009,378.72647781001274 M683.717164018009,378.72647781001274 L685.8388239333306,380.277135237641 M685.8388239333306,380.277135237641 L688.539838076691,381.4921168571547 M688.539838076691,381.4921168571547 L691.663164605917,382.30071313545983 M691.663164605917,382.30071313545983 L695.0272070999358,382.655862153205 M695.0272070999358,382.655862153205 L698.4363021828474,382.53689661792276 M698.4363021828474,382.53689661792276 L701.6921769780322,381.9507499878416 M701.6921769780322,381.9507499878416 L704.6054694343784,380.93151867305323 M704.6054694343784,380.93151867305323 L707.0067888309636,379.53853854630285 M707.0067888309636,379.53853854630285 L708.7566178375484,377.85283452027994 M708.7566178375484,377.85283452027994 L709.753280975933,375.9724715800806 M709.753280975933,375.9724715800806 L709.9390338275591,374.00678213378234 M709.9390338275591,374.00678213378234 L709.3032243979367,372.0700105883597 M709.3032243979367,372.0700105883597 L707.882932196522,370.2746935361696 M707.882932196522,370.2746935361696 L705.760836876834,368.72506593163206 M284.4204816919161,252.60897563513583 L284.39113178890284,237.42170617453627 M89.40011305065752,482.760299257575 L89.38973361064336,480.7707651921388 M261.4224498321191,582.9013731557772 L261.41780574879516,580.9085246114822 M261.4224498321191,582.9013731557772 L89.40011305065752,482.760299257575 M129.85727541245382,459.4903131587047 L89.40011305065752,482.760299257575 M129.85727541245382,459.4903131587047 L129.84825553270315,457.5015525011027 M129.85727541245382,459.4903131587047 L301.88068006492233,559.4750819401318 M301.88068006492233,559.4750819401318 L301.8773956490796,557.483006749157 M261.4224498321191,582.9013731557772 L301.88068006492233,559.4750819401318 M473.0363780088863,580.5541164713034 L473.0551830884821,565.2829757163556 M668.8712246642456,346.97870427600236 L708.6949308701862,323.9198177775449 M708.6949308701862,323.9198177775449 L708.7052001581208,321.93558709154604 M668.8712246642456,346.97870427600236 L668.8801766343606,344.9937001921144 M668.8712246642456,346.97870427600236 L496.8477958613931,248.40619823995223 M496.8477958613931,248.40619823995223 L496.8510123643792,246.42450862480348 M536.6725463465475,225.49996023212728 L708.6949308701862,323.9198177775449 M536.6725463465475,225.49996023212728 L536.6770802714238,223.51904394762317 M536.6725463465475,225.49996023212728 L496.8477958613931,248.40619823995223 M705.760836876834,368.72506593163206 L705.8389029892307,353.5078890081523" stroke="black"  stroke-width="4"  fill="red"/>
<path d="M622.540973544305,274.6282082555177 L622.6889090165391,234.95170663191908 M582.7166336608236,297.61058040578786 L582.8382049385771,257.91858218661486 M622.540973544305,274.6282082555177 L582.7166336608236,297.61058040578786 M622.6889090165391,234.95170663191908 L582.8382049385771,257.91858218661486 M668.8712246642456,346.97870427600236 L669.0503773733662,307.253498017084 M582.7166336608236,297.61058040578786 L668.8712246642456,346.97870427600236 M582.8382049385771,257.91858218661486 L669.0503773733662,307.253498017084 M708.6949308701862,323.9198177775449 L708.9004465083519,284.2101087596226 M668.8712246642456,346.97870427600236 L708.6949308701862,323.9198177775449 M669.0503773733662,307.253498017084 L708.9004465083519,284.2101087596226 M708.6949308701862,323.9198177775449 L622.540973544305,274.6282082555177 M708.9004465083519,284.2101087596226 L622.6889090165391,234.95170663191908" stroke="black"  stroke-width="4"  fill="red"/>
<path d="M536.6725463465475,225.49996023212728 L536.7632819961784,185.85666422827381 M496.8477958613931,248.40619823995223 L496.9121664979293,208.74740653480643 M536.6725463465475,225.49996023212728 L496.8477958613931,248.40619823995223 M536.7632819961784,185.85666422827381 L496.9121664979293,208.74740653480643 M582.7166336608236,297.61058040578786 L582.8382049385771,257.91858218661486 M496.8477958613931,248.40619823995223 L582.7166336608236,297.61058040578786 M496.9121664979293,208.74740653480643 L582.8382049385771,257.91858218661486 M622.540973544305,274.6282082555177 L622.6889090165391,234.95170663191908 M582.7166336608236,297.61058040578786 L622.540973544305,274.6282082555177 M582.8382049385771,257.91858218661486 L622.6889090165391,234.95170663191908 M622.540973544305,274.6282082555177 L536.6725463465475,225.49996023212728 M622.6889090165391,234.95170663191908 L536.7632819961784,185.85666422827381" stroke="black"  stroke-width="4"  fill="red"/>
<path d="M261.4224498321191,582.9013731557772 L261.32950891776176,543.0189780815641 M301.88068006492233,559.4750819401318 L301.81494987921764,519.6081836818187 M261.4224498321191,582.9013731557772 L301.88068006492233,559.4750819401318 M261.32950891776176,543.0189780815641 L301.81494987921764,519.6081836818187 M215.72508129268164,509.3990609482738 L215.60176766502957,469.56537109932714 M301.88068006492233,559.4750819401318 L215.72508129268164,509.3990609482738 M301.81494987921764,519.6081836818187 L215.60176766502957,469.56537109932714 M175.26727345770033,532.7470034067836 L175.1167499515267,492.8978161631993 M215.72508129268164,509.3990609482738 L175.26727345770033,532.7470034067836 M215.60176766502957,469.56537109932714 L175.1167499515267,492.8978161631993 M175.26727345770033,532.7470034067836 L261.4224498321191,582.9013731557772 M175.1167499515267,492.8978161631993 L261.32950891776176,543.0189780815641" stroke="black"  stroke-width="4"  fill="red"/>
<path d="M175.26727345770033,532.7470034067836 L175.1167499515267,492.8978161631993 M215.72508129268164,509.3990609482738 L215.60176766502957,469.56537109932714 M175.26727345770033,532.7470034067836 L215.72508129268164,509.3990609482738 M175.1167499515267,492.8978161631993 L215.60176766502957,469.56537109932714 M129.85727541245382,459.4903131587047 L129.6767632186884,419.6898325421811 M215.72508129268164,509.3990609482738 L129.85727541245382,459.4903131587047 M215.60176766502957,469.56537109932714 L129.6767632186884,419.6898325421811 M89.40011305065752,482.760299257575 L89.19239227532148,442.9443209327862 M129.85727541245382,459.4903131587047 L89.40011305065752,482.760299257575 M129.6767632186884,419.6898325421811 L89.19239227532148,442.9443209327862 M89.40011305065752,482.760299257575 L175.26727345770033,532.7470034067836 M89.19239227532148,442.9443209327862 L175.1167499515267,492.8978161631993" stroke="black"  stroke-width="4"  fill="red"/></svg>